<?xml version='1.0' encoding='utf-8'?>
<mxfile>
  <diagram>
    <mxGraphModel>
      <root>
        <mxCell id="0" />
<mxCell id="1" parent="0" />
<mxCell id="2" value="节点文本" style="形状样式;rounded=1;whiteSpace=wrap" parent="1" vertex="1">
  <mxGeometry x="100" y="200" width="120" height="60" as="geometry" />
</mxCell>
<mxCell id="3" value="开始" style="start" parent="0" vertex="1">
  <mxGeometry x="50" y="150" width="80" height="40" as="geometry" />
</mxCell>
<mxCell id="4" value="结束" style="end" parent="0" vertex="1">
  <mxGeometry x="150" y="150" width="80" height="40" as="geometry" />
</mxCell>
<mxCell id="5" value="判断" style="shape=ellipse;whiteSpace=wrap" parent="0" vertex="1">
  <mxGeometry x="100" y="100" width="80" height="60" as="geometry" />
</mxCell>
<mxCell id="6" value="是" style="shape=rectangle;whiteSpace=wrap" parent="5" vertex="1">
  <mxGeometry x="60" y="160" width="40" height="40" as="geometry" />
</mxCell>
<mxCell id="7" value="否" style="shape=rectangle;whiteSpace=wrap" parent="5" vertex="1">
  <mxGeometry x="120" y="160" width="40" height="40" as="geometry" />
</mxCell>
<mxCell id="8" value="操作" style="shape=rectangle;whiteSpace=wrap" parent="0" vertex="1">
  <mxGeometry x="100" y="250" width="80" height="60" as="geometry" />
</mxCell>
<mxCell id="9" edge="1" parent="2" source="2" target="3" style="edgeStyle=orthogonalEdgeStyle;rounded=0;orthogonalLoop=1;jettySize=auto;exitX=0.5;exitY=1;exitDx=0;exitDy=0;">
  <mxGeometry relative="1" as="geometry" />
</mxCell>
<mxCell id="10" edge="1" parent="3" source="3" target="5" style="edgeStyle=orthogonalEdgeStyle;rounded=0;orthogonalLoop=1;jettySize=auto;exitX=0.5;exitY=1;exitDx=0;exitDy=0;">
  <mxGeometry relative="1" as="geometry" />
</mxCell>
<mxCell id="11" edge="1" parent="5" source="6" target="8" style="edgeStyle=orthogonalEdgeStyle;rounded=0;orthogonalLoop=1;jettySize=auto;exitX=0.5;exitY=1;exitDx=0;exitDy=0;">
  <mxGeometry relative="1" as="geometry" />
</mxCell>
<mxCell id="12" edge="1" parent="5" source="7" target="4" style="edgeStyle=orthogonalEdgeStyle;rounded=0;orthogonalLoop=1;jettySize=auto;exitX=0.5;exitY=1;exitDx=0;exitDy=0;">
  <mxGeometry relative="1" as="geometry" />
</mxCell>
<mxCell id="13" edge="1" parent="8" source="8" target="4" style="edgeStyle=orthogonalEdgeStyle;rounded=0;orthogonalLoop=1;jettySize=auto;exitX=0.5;exitY=1;exitDx=0;exitDy=0;">
  <mxGeometry relative="1" as="geometry" />
</mxCell></root>
    </mxGraphModel>
  </diagram>
</mxfile>